<?xml version="1.0" standalone="no"?>
<!DOCTYPE svg PUBLIC "-//W3C//DTD SVG 20010904//EN"
 "http://www.w3.org/TR/2001/REC-SVG-20010904/DTD/svg10.dtd">
<svg version="1.0" xmlns="http://www.w3.org/2000/svg"
 width="444.000000pt" height="393.000000pt" viewBox="0 0 444.000000 393.000000"
 preserveAspectRatio="xMidYMid meet">

<g transform="translate(0.000000,393.000000) scale(0.100000,-0.100000)"
fill="#000000" stroke="none">
<path d="M2580 2766 c0 -3 30 -26 68 -52 87 -61 125 -97 175 -163 66 -89 79
-135 85 -300 l5 -144 136 7 c150 7 198 17 313 65 204 86 364 225 476 416 54
92 77 156 60 167 -13 8 -1318 12 -1318 4z"/>
<path d="M982 2710 c-16 -54 -15 -165 3 -244 33 -144 155 -285 285 -331 85
-30 255 -45 506 -45 198 0 246 -3 250 -14 3 -7 -13 -67 -36 -132 -23 -66 -57
-167 -75 -227 -19 -59 -43 -124 -54 -145 -23 -45 -46 -120 -39 -127 19 -19
274 75 427 156 143 77 305 200 378 287 74 88 146 230 159 310 l7 42 -69 31
c-79 36 -220 86 -279 99 -172 37 -413 80 -447 80 -10 0 -40 21 -66 48 -26 26
-82 67 -126 91 -89 51 -238 110 -277 111 -14 0 -63 11 -109 25 -75 22 -101 25
-254 25 l-171 0 -13 -40z"/>
<path d="M2600 1699 c-80 -71 -212 -155 -355 -226 -142 -71 -167 -81 -377
-149 -100 -33 -119 -42 -126 -64 -5 -14 -29 -86 -53 -160 -42 -130 -44 -139
-44 -260 0 -105 4 -134 22 -183 81 -208 201 -332 391 -406 115 -44 123 -39
157 99 9 36 33 112 55 170 39 106 225 676 284 870 18 58 44 135 59 171 23 57
48 180 36 179 -2 -1 -24 -19 -49 -41z"/>
</g>
</svg>
